<svg width="189" height="98" viewBox="0 0 189 98" fill="none" xmlns="http://www.w3.org/2000/svg">
<path d="M39.8489 72.1683C32.5297 72.1683 26.837 77.7197 26.837 84.8572C26.837 91.9947 32.5297 97.5461 39.8489 97.5461C47.1681 97.5461 52.8609 91.9947 52.8609 84.8572C52.8609 77.7197 47.1681 72.1683 39.8489 72.1683ZM117.107 0H110.601V15.4646H134.999L117.107 0ZM0.81317 87.2364H17.0781C17.0781 87.2364 17.8913 63.4446 41.4754 63.4446C58.9602 63.4446 61.8065 87.2364 61.8065 87.2364H102.469V0H0L0.81317 87.2364ZM154.516 72.1683C147.197 72.1683 141.505 77.7197 141.505 84.8572C141.505 91.9947 147.197 97.5461 154.516 97.5461C161.836 97.5461 167.528 91.9947 167.528 84.8572C167.528 77.7197 161.429 72.1683 154.516 72.1683ZM139.065 19.8264H110.601V87.2364H134.999C134.999 87.2364 131.746 67.4099 155.33 67.4099C173.221 67.4099 172.814 87.2364 172.814 87.2364H187.86L188.673 57.4967L139.065 19.8264ZM134.999 71.3752H118.734V63.4446H134.999V71.3752ZM133.372 57.1001L117.107 47.5835V25.3778H133.372L175.661 57.1001H133.372Z" fill="white" fill-opacity="0.4"/>
</svg>
